<svg xmlns="http://www.w3.org/2000/svg" viewBox="0 0 100 100"><g id="Capa_4" data-name="Capa 4"><path d="M45.33,11.72a1.66,1.66,0,0,0-1.64,1.39L42,23.06a29.47,29.47,0,0,0-5.62,2.3l-8.27-5.83a1.67,1.67,0,0,0-2.14.19l-6.5,6.5a1.68,1.68,0,0,0-.19,2.14l5.83,8.28a27.68,27.68,0,0,0-2.3,5.6l-9.76,1.53a1.66,1.66,0,0,0-1.41,1.64v9.17A1.67,1.67,0,0,0,13,56.23L23,57.91a30,30,0,0,0,2.3,5.61l-5.81,8.11a1.67,1.67,0,0,0,.17,2.15l6.51,6.5a1.67,1.67,0,0,0,2.14.19l8.28-5.83a27.53,27.53,0,0,0,5.61,2.3l1.68,10a1.67,1.67,0,0,0,1.65,1.39h9.17a1.68,1.68,0,0,0,1.64-1.37l1.84-10a30,30,0,0,0,5.63-2.31l8.28,5.83a1.66,1.66,0,0,0,2.14-.19l6.5-6.5a1.67,1.67,0,0,0,.17-2.16l-6-8.27a29.16,29.16,0,0,0,2.29-5.44L87,56.23a1.67,1.67,0,0,0,1.38-1.65V45.41A1.67,1.67,0,0,0,87,43.77L77,42.08a29.25,29.25,0,0,0-2.29-5.45l5.82-8.27a1.67,1.67,0,0,0-.18-2.14l-6.51-6.5a1.67,1.67,0,0,0-2.16-.18l-8.27,6a27.42,27.42,0,0,0-5.6-2.29L56.15,13.12a1.67,1.67,0,0,0-1.65-1.4Zm1.41,3.34h6.35l1.6,9.61A1.69,1.69,0,0,0,55.93,26a24.4,24.4,0,0,1,6.87,2.8,1.66,1.66,0,0,0,1.85-.07l7.86-5.67L77,27.59l-5.52,7.86a1.65,1.65,0,0,0-.06,1.83A25.59,25.59,0,0,1,74.24,44a1.67,1.67,0,0,0,1.33,1.21L85,46.82v6.36l-9.29,1.6A1.64,1.64,0,0,0,74.41,56a25.93,25.93,0,0,1-2.81,6.73,1.65,1.65,0,0,0,.07,1.85l5.67,7.85-4.51,4.51L65,71.4a1.68,1.68,0,0,0-1.79-.08,26.74,26.74,0,0,1-6.91,2.83A1.66,1.66,0,0,0,55,75.47l-1.75,9.47H46.91l-1.6-9.45a1.67,1.67,0,0,0-1.24-1.34,24.42,24.42,0,0,1-6.87-2.81,1.7,1.7,0,0,0-1.84.06L27.5,76.93,23,72.42l5.52-7.69a1.68,1.68,0,0,0,.09-1.8A26.12,26.12,0,0,1,25.77,56a1.66,1.66,0,0,0-1.34-1.23L15,53.18V46.84l9.26-1.45a1.66,1.66,0,0,0,1.36-1.24,24.52,24.52,0,0,1,2.8-6.87,1.67,1.67,0,0,0,0-1.83l-5.53-7.86,4.52-4.52L35.2,28.6a1.66,1.66,0,0,0,1.78.08,26.81,26.81,0,0,1,6.92-2.83,1.67,1.67,0,0,0,1.24-1.34ZM50,36.74A13.35,13.35,0,1,0,63.34,50.08,13.31,13.31,0,0,0,50,36.74Zm0,3.34a10,10,0,1,1-10,10A9.89,9.89,0,0,1,50,40.08Z"/></g></svg>