<?xml version="1.0" ?><svg viewBox="0 0 32 32" xmlns="http://www.w3.org/2000/svg"><title/><g id="Calendar"><path d="M9,8A1,1,0,0,1,8,7V5a1,1,0,0,1,2,0V7A1,1,0,0,1,9,8Z"/><path d="M23,8a1,1,0,0,1-1-1V5a1,1,0,0,1,2,0V7A1,1,0,0,1,23,8Z"/><path d="M25,6V7a2,2,0,0,1-4,0V6H11V7A2,2,0,0,1,7,7V6A3,3,0,0,0,4,9V25a3,3,0,0,0,3,3H25a3,3,0,0,0,3-3V9A3,3,0,0,0,25,6ZM11,24H9a1,1,0,0,1,0-2h2a1,1,0,0,1,0,2Zm0-4.5H9a1,1,0,0,1,0-2h2a1,1,0,0,1,0,2ZM11,15H9a1,1,0,0,1,0-2h2a1,1,0,0,1,0,2Zm6,9H15a1,1,0,0,1,0-2h2a1,1,0,0,1,0,2Zm0-4.5H15a1,1,0,0,1,0-2h2a1,1,0,0,1,0,2ZM17,15H15a1,1,0,0,1,0-2h2a1,1,0,0,1,0,2Zm6,9H21a1,1,0,0,1,0-2h2a1,1,0,0,1,0,2Zm0-4.5H21a1,1,0,0,1,0-2h2a1,1,0,0,1,0,2ZM23,15H21a1,1,0,0,1,0-2h2a1,1,0,0,1,0,2Zm2-3H7a1,1,0,0,1,0-2H25a1,1,0,0,1,0,2Z"/></g></svg>