<svg xmlns="http://www.w3.org/2000/svg" viewBox="0 0 100 100"><defs><style>.cls-1{fill:#1d1d1b;}.cls-1,.cls-2{stroke:#1d1d1b;}.cls-1,.cls-2,.cls-3{stroke-miterlimit:10;stroke-width:2px;}.cls-2,.cls-3{fill:#fff;}.cls-3{stroke:#fff;}</style></defs><g id="Capa_4" data-name="Capa 4"><path class="cls-1" d="M63.06,87.33H38.54a9,9,0,0,1-8.83-7.2L20.4,34.69a2.3,2.3,0,0,1,2.26-2.76H77.35a2.3,2.3,0,0,1,2.25,2.75l-9.17,46.6A7.5,7.5,0,0,1,63.06,87.33Z"/><rect class="cls-2" x="33.2" y="37.05" width="7.06" height="45.66" rx="3.11" transform="translate(-6.25 4.31) rotate(-6.2)"/><rect class="cls-2" x="60.68" y="37.18" width="7.06" height="45.69" rx="3.11" transform="translate(6.97 -6.68) rotate(6.3)"/><rect class="cls-2" x="47.97" y="35.41" width="7.06" height="47.34" rx="3.11"/><path class="cls-1" d="M79.24,23.58H21.39a1.27,1.27,0,0,1-1.1-1.89l2.18-3.84a4.48,4.48,0,0,1,3.89-2.26H72.61a4.82,4.82,0,0,1,4,2.2l3.12,4.81A.63.63,0,0,1,79.24,23.58Z"/><rect class="cls-1" x="38.91" y="7.75" width="23.72" height="7.84" rx="1.75"/><rect class="cls-3" x="42.69" y="11.18" width="16.15" height="2.45" rx="1.23"/></g></svg>