<svg xmlns="http://www.w3.org/2000/svg" viewBox="0 0 100 100"><defs><style>.cls-1{fill:#fff;stroke:#1d1d1b;stroke-miterlimit:10;stroke-width:2px;}</style></defs><g id="Capa_4" data-name="Capa 4"><path class="cls-1" d="M64.36,87.33H39.83A9,9,0,0,1,31,80.13L21.7,34.69A2.3,2.3,0,0,1,24,31.93H78.64a2.31,2.31,0,0,1,2.26,2.75l-9.17,46.6A7.51,7.51,0,0,1,64.36,87.33Z"/><rect class="cls-1" x="34.49" y="37.05" width="7.06" height="45.66" rx="3.11" transform="translate(-6.24 4.45) rotate(-6.2)"/><rect class="cls-1" x="61.98" y="37.18" width="7.06" height="45.69" rx="3.11" transform="translate(6.98 -6.82) rotate(6.3)"/><rect class="cls-1" x="49.27" y="35.41" width="7.06" height="47.34" rx="3.11"/><path class="cls-1" d="M79.78,28.66H21.92a1.27,1.27,0,0,1-1.1-1.89L23,22.94a4.47,4.47,0,0,1,3.89-2.26H73.14a4.82,4.82,0,0,1,4,2.19l3.12,4.82A.63.63,0,0,1,79.78,28.66Z"/><rect class="cls-1" x="39.44" y="12.83" width="23.72" height="7.84" rx="1.75"/><rect class="cls-1" x="43.43" y="16.75" width="16.15" height="3.92" rx="1.23"/></g></svg>