<svg xmlns="http://www.w3.org/2000/svg" viewBox="0 0 100 100"><defs><style>.cls-1{fill:#1d1d1b;}.cls-2{fill:none;stroke:#1d1d1b;stroke-miterlimit:10;stroke-width:2px;}</style></defs><g id="Capa_4" data-name="Capa 4"><path class="cls-1" d="M75.65,78.65c-.07,4.18-2.85,8.34-7.34,8.42-1.24,0-2.48,0-3.72,0H31.76a7.39,7.39,0,0,1-6.55-3.39,10.81,10.81,0,0,1-1.44-6V29.13c0-1.14,0-2.28,0-3.42,0-3.4,1.73-7,5.11-8.19a15.07,15.07,0,0,1,5.06-.38H60.16a1.25,1.25,0,0,0,0-2.5c-9.66,0-19.33-.14-29,0a10,10,0,0,0-9,6.42,15,15,0,0,0-.87,5.78V76.77a23.61,23.61,0,0,0,.19,4c.8,4.59,4.49,8.55,9.29,8.77,4,.18,8,0,12,0H62.52c1.8,0,3.6,0,5.4,0A9.77,9.77,0,0,0,76,85.48a11.88,11.88,0,0,0,2.16-6.83,1.25,1.25,0,0,0-2.5,0Z"/><path class="cls-1" d="M75.65,32.81V47.9a1.25,1.25,0,0,0,2.5,0V32.81a1.25,1.25,0,0,0-2.5,0Z"/><path class="cls-1" d="M76.9,31.75l-4.44-.1c-1.46,0-3,0-4.42-.12a7.52,7.52,0,0,1-5.9-4.68,13.93,13.93,0,0,1-.73-5.62V15.89a1.25,1.25,0,0,0-2.5,0v4.95a18.41,18.41,0,0,0,.65,6.23,10.5,10.5,0,0,0,6.24,6.5,17.52,17.52,0,0,0,5.5.55l5.6.13a1.25,1.25,0,0,0,0-2.5Z"/><path class="cls-1" d="M59.66,16.77,74,31.43l2,2c1.13,1.15,2.9-.61,1.77-1.77L63.44,17.06l-2-2.06c-1.13-1.15-2.89.62-1.77,1.77Z"/><polygon class="cls-2" points="67.43 79.07 59.45 81.79 60.9 73.48 84 46.49 90.53 52.08 67.43 79.07"/><path class="cls-2" d="M86.5,44.75H92a1.76,1.76,0,0,1,1.76,1.76v2.24a0,0,0,0,1,0,0H85.13a0,0,0,0,1,0,0V46.12A1.37,1.37,0,0,1,86.5,44.75Z" transform="translate(51.87 -46.91) rotate(40.55)"/><line class="cls-2" x1="60.9" y1="73.48" x2="67.43" y2="79.07"/><line class="cls-2" x1="33.07" y1="38.75" x2="68.72" y2="38.75"/><line class="cls-2" x1="33.07" y1="46.75" x2="68.72" y2="46.75"/><line class="cls-2" x1="68.72" y1="54.04" x2="33.07" y2="54.04"/></g></svg>