<svg width="512" height="512" xmlns="http://www.w3.org/2000/svg">

 <g>
  <title>background</title>
  <rect fill="none" id="canvas_background" height="402" width="582" y="-1" x="-1"/>
 </g>
 <g>
  <title>Layer 1</title>
  <path fill="#ffffff" id="svg_1" d="m152,120c-26.51,0 -48,21.49 -48,48s21.49,48 48,48s48,-21.49 48,-48s-21.5,-48 -48,-48zm295.1,-88l-384,0c-34.45,0 -63.1091,28.65 -63.1091,64l0,320c0,35.35 28.65,64 63.1,64l384,0c35.35,0 64,-28.65 64,-64l0,-320c0.0091,-35.35 -27.7909,-64 -63.9909,-64zm16,377.3l-136.8,-185.9c-2.5,-4.6 -8.2,-7.4 -14.3,-7.4c-6.113,0 -11.82,2.768 -15.21,7.379l-106.6,144.1l-37.09,-46.1c-3.441,-4.279 -8.934,-6.809 -14.77,-6.809c-5.842,0 -11.33,2.529 -14.78,6.809l-75.52,93.81c0,-0.0293 0,0.0293 0,0l-0.04,-319.189c0,-8.822 7.178,-16 16,-16l384,0c8.822,0 16,7.178 16,16l0,313.3l-0.89,0z"/>
 </g>
</svg>