<?xml version="1.0" encoding="UTF-8" standalone="no"?>
<!-- Created with Inkscape (http://www.inkscape.org/) -->

<svg
   width="36.146793mm"
   height="50.050617mm"
   viewBox="0 0 36.146793 50.050617"
   version="1.1"
   id="svg1"
   xml:space="preserve"
   inkscape:version="1.4 (86a8ad7, 2024-10-11)"
   sodipodi:docname="drawing.svg"
   xmlns:inkscape="http://www.inkscape.org/namespaces/inkscape"
   xmlns:sodipodi="http://sodipodi.sourceforge.net/DTD/sodipodi-0.dtd"
   xmlns:xlink="http://www.w3.org/1999/xlink"
   xmlns="http://www.w3.org/2000/svg"
   xmlns:svg="http://www.w3.org/2000/svg"><sodipodi:namedview
     id="namedview1"
     pagecolor="#505050"
     bordercolor="#eeeeee"
     borderopacity="1"
     inkscape:showpageshadow="0"
     inkscape:pageopacity="0"
     inkscape:pagecheckerboard="0"
     inkscape:deskcolor="#505050"
     inkscape:document-units="mm"
     showguides="false"
     inkscape:zoom="4.0668163"
     inkscape:cx="376.33861"
     inkscape:cy="111.2664"
     inkscape:window-width="2560"
     inkscape:window-height="1009"
     inkscape:window-x="-8"
     inkscape:window-y="-8"
     inkscape:window-maximized="1"
     inkscape:current-layer="layer1"
     inkscape:export-bgcolor="#ffffff17"><inkscape:page
       x="0"
       y="-6.5905201e-14"
       width="36.146793"
       height="50.050621"
       id="page2"
       margin="0"
       bleed="0" /></sodipodi:namedview><defs
     id="defs1"><linearGradient
       id="swatch564"
       inkscape:swatch="solid"><stop
         style="stop-color:#ffffff;stop-opacity:1;"
         offset="0"
         id="stop564" /></linearGradient><linearGradient
       id="swatch153"
       inkscape:swatch="solid"><stop
         style="stop-color:#ffffff;stop-opacity:1;"
         offset="0"
         id="stop153" /></linearGradient><linearGradient
       id="swatch121"
       inkscape:swatch="solid"><stop
         style="stop-color:#ffffff;stop-opacity:1;"
         offset="0"
         id="stop122" /></linearGradient><linearGradient
       id="linearGradient119"
       inkscape:collect="always"><stop
         style="stop-color:#000000;stop-opacity:1;"
         offset="0.44416142"
         id="stop119" /><stop
         style="stop-color:#000000;stop-opacity:1;"
         offset="0.51199287"
         id="stop121" /><stop
         style="stop-color:#000000;stop-opacity:1;"
         offset="0.60090029"
         id="stop120" /></linearGradient><linearGradient
       inkscape:collect="always"
       xlink:href="#linearGradient119"
       id="linearGradient553"
       gradientUnits="userSpaceOnUse"
       gradientTransform="translate(-15.847877,-70.247557)"
       x1="319.90985"
       y1="146.10782"
       x2="320.6459"
       y2="218.42564" /></defs><g
     inkscape:label="Layer 1"
     inkscape:groupmode="layer"
     id="layer1"
     transform="translate(-286.55197,-78.777943)"><g
       id="g581"><path
         style="opacity:0.98;fill:url(#linearGradient553);fill-opacity:1;stroke:#ffffff;stroke-width:2.1;stroke-miterlimit:4.5;stroke-dasharray:none;stroke-dashoffset:0;stroke-opacity:1;paint-order:markers fill stroke"
         d="m 287.63818,96.434315 c 0.71776,12.206795 16.98058,30.792885 16.98058,30.792885 0,0 16.13927,-18.72554 16.98056,-30.792885 0.81948,-11.7546 -8.40964,-16.60637 -17.50103,-16.60637 -9.0914,0 -17.10987,5.55611 -16.46011,16.60637 z"
         id="path553"
         sodipodi:nodetypes="scszs" /><g
         id="g580"><g
           id="g576"
           transform="matrix(0.47688581,0,0,0.47688581,174.59145,29.061728)"
           style="stroke:#000000;stroke-width:0.2;stroke-dasharray:none"><g
             id="g575"
             transform="matrix(1.1827685,0,0,1.1827685,111.0815,150.90124)"
             style="stroke:#000000;stroke-width:0.169095;stroke-dasharray:none"><path
               id="path571"
               style="opacity:0.99;fill:#ffffff;stroke:#000000;stroke-width:0.169095;stroke-dasharray:none"
               d="m 141.70881,14.548675 6.26367,0.03373 -6.29347,11.9707 -6.75886,-0.02733 z"
               sodipodi:nodetypes="ccccc" /><path
               id="path572"
               style="opacity:0.99;fill:#ffffff;stroke:#000000;stroke-width:0.169095;stroke-dasharray:none"
               d="m 135.61635,12.681765 6.12051,0.0047 -8.83559,15.578026 -6.71619,0.01906 z"
               sodipodi:nodetypes="ccccc" /><path
               id="path573"
               style="opacity:0.99;fill:#0055d4;stroke:#000000;stroke-width:0.169095;stroke-dasharray:none"
               d="m 141.28782,15.416954 2.78979,5.549397 -13.60915,-0.051 -3.207,-5.507146 z"
               sodipodi:nodetypes="ccccc" /><path
               style="opacity:0.98;fill:#1a1a1a;stroke:#000000;stroke-width:0.169095;stroke-dasharray:none"
               d="m 141.30494,15.332045 c -1.8e-4,-0.0087 3.12169,-0.0158 5.96785,-0.0074 -1.44511,2.820138 -1.51526,2.89354 -3.07396,5.709987 -0.63589,-1.164333 -2.89374,-5.695147 -2.89389,-5.702552 z"
               id="path574"
               sodipodi:nodetypes="sccss" /><path
               style="opacity:0.98;fill:#ffffff;stroke:#000000;stroke-width:0.169095;stroke-dasharray:none"
               d="m 142.71051,12.755284 c 0,0 3.73284,-0.02202 4.64263,0.141383 0.9098,0.163402 0.75131,1.03884 0.75131,1.03884 l -6.06378,-0.03256 z"
               id="path575"
               sodipodi:nodetypes="czccc" /><text
               xml:space="preserve"
               style="font-size:3.175px;text-align:start;writing-mode:lr-tb;direction:ltr;text-anchor:start;opacity:0.98;fill:#ffffff;stroke:#000000;stroke-width:0.169095;stroke-dasharray:none"
               x="142.08905"
               y="26.413988"
               id="text575"><tspan
                 sodipodi:role="line"
                 id="tspan575"
                 style="font-style:normal;font-variant:normal;font-weight:normal;font-stretch:normal;font-family:'Arial Rounded MT Bold';-inkscape-font-specification:'Arial Rounded MT Bold, ';writing-mode:lr-tb;fill:#ffffff;stroke:#000000;stroke-width:0.169095;stroke-dasharray:none"
                 x="142.08905"
                 y="26.413988">.com</tspan></text></g><text
             xml:space="preserve"
             style="font-style:normal;font-variant:normal;font-weight:normal;font-stretch:normal;font-size:6.63963px;font-family:'Arial Rounded MT Bold';-inkscape-font-specification:'Arial Rounded MT Bold, ';text-align:start;writing-mode:lr-tb;direction:ltr;text-anchor:start;opacity:0.98;fill:#ffffff;stroke:#000000;stroke-width:0.2;stroke-dasharray:none"
             x="302.19675"
             y="244.14919"
             id="text576"
             transform="matrix(1.3027209,-0.06483237,-0.51892341,0.79344934,0,0)"
             inkscape:transform-center-x="-0.59890021"
             inkscape:transform-center-y="0.15310281"><tspan
               id="tspan576"
               style="fill:#ffffff;stroke:#000000;stroke-width:0.2;stroke-dasharray:none"
               x="302.19675"
               y="244.14919"
               sodipodi:role="line">R</tspan></text></g><path
           style="fill:#ffffff;stroke:#000000;stroke-width:0.66609"
           d="m 295.92002,98.711236 h 18.32858 c 0,0.696259 0.48822,4.627304 1.90705,2.567124 0.45458,-0.66007 0.20778,-1.979937 0.20778,-2.743361 0,-2.350584 0.63585,-5.806186 -0.51388,-7.930502 -1.50498,-2.780695 -5.12948,-2.114972 -7.76923,-2.114972 -1.15026,0 -2.6101,-0.244414 -3.45089,0.728471 -1.23558,1.42972 -0.60254,4.724418 -0.60254,6.497221 h -8.10687 v -3.8772 c 0,-1.354008 0.29006,-3.098493 -0.10091,-4.402511 -0.22669,-0.756107 -1.26752,-1.237791 -1.80615,-0.455686 -0.51887,0.753421 -0.20778,2.394367 -0.20778,3.272069 v 7.930637 c 0,0.839935 -0.28995,2.373114 0.20778,3.095834 1.41883,2.06018 1.90706,-1.870865 1.90706,-2.567124 m 3.34849,-10.127881 c -3.70147,0.875919 -2.52401,6.758704 1.23365,5.982382 3.93327,-0.812605 2.67323,-6.906912 -1.23365,-5.982382 z"
           id="path580" /></g></g></g></svg>
