<svg xmlns="http://www.w3.org/2000/svg" viewBox="0 0 100 100"><defs><style>.cls-1{fill:#1d1d1b;}.cls-2{fill:#fff;stroke:#1d1d1b;stroke-miterlimit:10;stroke-width:0.5px;}</style></defs><g id="Capa_4" data-name="Capa 4"><path class="cls-1" d="M28.11,38.75c-7-7.4,5.25-5.36,2.14-10.19-4.79-7.44,5.51-5,5.2-7.77-1.26-11.22,6.68-2.7,8.34-5.64,3.1-5.45,4.66-5,9.57-1.64"/><path class="cls-1" d="M28.55,38.31c-1-1-2.91-3.06-1.44-4.43.91-.86,2.21-1.19,3.2-2a2.44,2.44,0,0,0,.75-3.19c-.62-1.31-2.47-3.5-.74-4.72,1.16-.82,2.74-.86,4-1.31a2.94,2.94,0,0,0,1.37-.83c.59-.74.26-1.71.23-2.57-.07-1.47-.11-4,1.92-3.88,1.37.05,2.65.76,4,1,2.4.35,2.77-1.81,4.07-3.38a2.83,2.83,0,0,1,2.85-1.3A12.92,12.92,0,0,1,53,14.05c.66.45,1.29-.63.63-1.08-1.8-1.24-4.32-3.28-6.66-2.37a5.69,5.69,0,0,0-2.4,2.11,18.4,18.4,0,0,1-1.39,2.18.85.85,0,0,1-.5.29c-1.26.28-2.93-.74-4.18-.94A2.89,2.89,0,0,0,35.1,16a8.23,8.23,0,0,0-.38,3.52c0,.87.42,1.51-.42,1.92C33,22.05,31.35,22,30,22.74a3.06,3.06,0,0,0-1.39,4c.47,1.37,2.44,3.1.83,4.29-1.2.9-2.89,1.26-3.74,2.6-1.25,2,.68,4.21,2,5.59.55.6,1.43-.29.88-.88Z"/><path class="cls-1" d="M53.36,13.51c7.4-7,5.08,5.08,9.91,2,7.44-4.78,5,5.51,7.77,5.2,11.21-1.26,2.69,6.68,5.63,8.34,5.46,3.1,5,4.66,1.65,9.57"/><path class="cls-1" d="M53.8,14c1-.9,3-2.93,4.33-1.51.84.91,1.11,2.23,1.89,3.2a2.39,2.39,0,0,0,3.16.62c1.35-.68,3.53-2.45,4.71-.58.75,1.17.8,2.69,1.26,4,.65,1.79,1.67,1.6,3.38,1.53,1.52-.07,4-.09,3.87,2-.08,1.35-.76,2.6-1,3.93-.35,2.4,1.8,2.77,3.37,4.07a2.8,2.8,0,0,1,1.28,3,13.64,13.64,0,0,1-2.32,4.14c-.46.67.62,1.29,1.08.63,1.23-1.79,3.27-4.32,2.37-6.66a5.76,5.76,0,0,0-2.11-2.4c-.65-.49-1.54-.82-2.13-1.36a.8.8,0,0,1-.34-.53c-.28-1.24.72-2.88.92-4.1A2.92,2.92,0,0,0,76,20.36a7.93,7.93,0,0,0-3.42-.42c-.9,0-1.66.47-2.09-.41-.65-1.32-.63-2.9-1.32-4.23a3.06,3.06,0,0,0-3.9-1.49c-1.07.35-2,1.25-3,1.52a1.13,1.13,0,0,1-1.28-.59c-.86-1.17-1.15-2.81-2.43-3.65-1.94-1.28-4.21.73-5.56,2-.59.54.3,1.43.89.88Z"/><path class="cls-1" d="M78.32,38.59c7,7.4-5.08,4.81-2,9.63,4.79,7.45-5.51,5-5.2,7.78,1.27,11.21-6.67,2.69-8.34,5.63-3.09,5.46-4.66,5-9.56,1.64"/><path class="cls-1" d="M77.88,39c.85.92,2.94,3,1.51,4.24-.92.8-2.23,1-3.2,1.76a2.29,2.29,0,0,0-.62,3.1c.68,1.36,2.44,3.54.58,4.72-1.18.75-2.69.79-4,1.26-1.79.65-1.6,1.66-1.53,3.37.07,1.53.09,4-2,3.88-1.35-.08-2.6-.76-3.94-1-2.4-.35-2.76,1.81-4.06,3.38a2.83,2.83,0,0,1-3,1.28,14.1,14.1,0,0,1-4.14-2.32c-.66-.46-1.29.62-.63,1.07,1.8,1.24,4.33,3.28,6.67,2.37a5.73,5.73,0,0,0,2.4-2.1c.48-.66.82-1.54,1.35-2.14a.84.84,0,0,1,.53-.34c1.24-.27,2.89.72,4.11.93a2.92,2.92,0,0,0,3.49-1.62,8,8,0,0,0,.42-3.43c0-.89-.48-1.65.41-2.08,1.32-.65,2.9-.63,4.22-1.33A3,3,0,0,0,78,50.18c-.34-1.07-1.25-2-1.51-3-.14-.58.12-.9.58-1.22,1.18-.81,2.81-1,3.66-2.29,1.29-1.9-.76-4.17-2-5.48-.55-.6-1.43.29-.88.88Z"/><path class="cls-1" d="M53.24,63.27c-7.4,7-5.37-5.24-10.19-2.14-7.45,4.79-5-5.51-7.78-5.19-11.21,1.26-2.69-6.68-5.63-8.35-5.46-3.09-4.92-3.93-1.53-8.84"/><path class="cls-1" d="M52.8,62.83c-1,1-3.06,2.91-4.44,1.45-.85-.91-1.18-2.22-2-3.2a2.44,2.44,0,0,0-3.2-.76c-1.3.63-3.49,2.47-4.71.74-.82-1.15-.86-2.73-1.32-4a2.9,2.9,0,0,0-.82-1.38c-.74-.58-1.72-.26-2.57-.22-1.47.06-4,.11-3.89-1.92.06-1.38.77-2.65,1-4,.34-2.34-1.67-2.74-3.27-3.93-.86-.63-1.64-1.37-1.34-2.5a14.6,14.6,0,0,1,2.39-4c.46-.67-.62-1.29-1.08-.63-1.11,1.61-3.32,4.05-2.44,6.2a5.39,5.39,0,0,0,2.07,2.19,15.84,15.84,0,0,1,2.18,1.33.88.88,0,0,1,.29.5c.28,1.26-.74,2.94-.94,4.18a2.89,2.89,0,0,0,1.7,3.45,8.44,8.44,0,0,0,3.53.38c.87,0,1.5-.42,1.91.42.67,1.35.64,2.95,1.36,4.29a3.08,3.08,0,0,0,4,1.39c1.37-.47,3.09-2.45,4.29-.84.9,1.21,1.25,2.89,2.59,3.74,2,1.26,4.22-.67,5.6-2,.59-.55-.29-1.43-.88-.89Z"/><path class="cls-1" d="M57,16.13a15.19,15.19,0,0,1-3.43-.95L55,18.85,55,19l-1.1.65-.15,0c3.19-.19,3.24-4.92,0-5A7.18,7.18,0,0,0,49,16.27c-1.27,1-2.2,2.38-3.47,3.38S43,21.2,41.8,22.1a18.14,18.14,0,0,0-3.54,3.57c-.92,1.18-1.73,2.44-2.63,3.63a15.72,15.72,0,0,1-3.38,3c-2.89,2.19-4.05,5.47-2.07,8.73a61.59,61.59,0,0,0,6,7.74,75.13,75.13,0,0,0,6.65,6.94c2.46,2.23,5.19,5.15,8.74,3.57a65.57,65.57,0,0,0,8.71-5.12,41.72,41.72,0,0,0,4.46-3.26,36.79,36.79,0,0,0,3.86-4.13,44.14,44.14,0,0,1,7.76-7.26l-3-3.92a36.28,36.28,0,0,0-3.5,4.86l4.57,1.93c1-2.42,2.85-5.23.73-7.57a56.11,56.11,0,0,0-5.64-5q-3-2.46-6.06-4.74c-1-.76-2.06-1.49-3.11-2.22-.61-.42-1.94-1.14-2.13-1.9v1.32l-1.72.84.19.11c.1.2.49.42.66.57.5.44,1,.9,1.42,1.38.15.15.41.56.6.64.26.39.36.18.28-.63.36-.52.39-.78.08-.8s-.76-.06-1-.09a28.78,28.78,0,0,1-3.46-.75c-.69-.18-1.63-.26-2-.95a2.52,2.52,0,0,0-3.93-.5C46.94,25,43.78,27,40.81,29.26a31.86,31.86,0,0,0-4.45,3.92c-1.39,1.55-3.36,3.76-2.88,6s2.29,2.62,3.89,3.76,2.59,3,3.74,4.44a49.52,49.52,0,0,0,4.54,5.06c1.83,1.78,3.83,3,6.42,2,3.73-1.52,6.69-5,9.34-7.92,1.37-1.5,2.74-3,4.24-4.38s3.86-2.37,4.32-4.48c.64-3-2.68-3.69-4.66-4.69s-3.82-2.28-5.75-3.4c-4.2-2.46-8.83-2.88-13.11-.3A20.14,20.14,0,0,0,41,34.46c-1.58,2.08-2.62,4.7-.36,6.78a12.14,12.14,0,0,0,2.85,1.62,17.85,17.85,0,0,1,2.76,1.79,47.81,47.81,0,0,1,5.36,5.29,2.52,2.52,0,0,0,3.92-.51c1.13-1.77,1.33-3.82,2.13-5.72a12,12,0,0,1,3.44-4.53c1.49-1.27.58-3.68-1.1-4.18-2.31-.68-4.64-1.28-7-1.75-2.14-.43-4.54-.86-6.26.86A3.78,3.78,0,0,0,47.24,40c1.22.77,2.87.68,3.42,2.26A2.55,2.55,0,0,0,53.73,44a2.52,2.52,0,0,0,1.75-3.07A7.79,7.79,0,0,0,53,37.3a7.14,7.14,0,0,0-1.76-1,4.55,4.55,0,0,0-.93-.35c-.23-.17-.33-.2-.31-.08.06.61.13,1.22.22,1.82.06.06-.3,0,0,.18a5.19,5.19,0,0,0,.92.16c.79.15,1.57.32,2.35.49q2.58.6,5.12,1.35l-1.11-4.17a16.11,16.11,0,0,0-4.05,5.18c-.94,1.94-1.15,4.27-2.29,6.08l3.92-.51a38.38,38.38,0,0,0-8.23-7.35A21.2,21.2,0,0,0,44.76,38a5.67,5.67,0,0,0-.86-.46c.4-.06.47.32.24,1.13.13-.23.27-.45.42-.67a17.46,17.46,0,0,1,3.24-3.57,8.58,8.58,0,0,1,4.15-2,7.54,7.54,0,0,1,4.72,1.21c1.62.91,3.13,2,4.75,2.89.77.43,1.56.83,2.35,1.21a13.82,13.82,0,0,1,2.4,1.11L65.28,38l.12.27-.25-1.93c.06-.35.27-.26,0-.19a3.74,3.74,0,0,0-.63.45c-.43.32-.86.66-1.27,1A30.73,30.73,0,0,0,61,39.67c-1.4,1.39-2.7,2.87-4,4.32a41.28,41.28,0,0,1-4.34,4.23,13.08,13.08,0,0,1-2.05,1.41,1.44,1.44,0,0,1-.48.21c.13,0,.29.07.12,0-.35-.14-.73-.66-1-.93a45.91,45.91,0,0,1-4.47-5,25.25,25.25,0,0,0-4-4.68,6.68,6.68,0,0,0-2.3-1.41c-.12,0-.23-.13-.26-.12s.55,1,.29,1a12.07,12.07,0,0,0,.81-1.21A22.58,22.58,0,0,1,43,33.87c3.36-2.7,7.13-4.91,9.94-8.25L49,25.12a6.49,6.49,0,0,0,4.2,3,30,30,0,0,0,5.65,1.15c1.88.19,4.07-.39,5.09-2.13,1.27-2.17-.29-4.19-1.76-5.71S59.07,18.25,57,18.19a3.48,3.48,0,0,0-3.58,4.08c.45,2,2.36,3.42,3.93,4.55S60.49,29,62,30.2c1.71,1.29,3.37,2.64,5,4q1.22,1,2.4,2.1a14.85,14.85,0,0,1,2.11,2l-.34-1.26a5.39,5.39,0,0,1-.65,1.76l-.93,2.24a2.48,2.48,0,0,0,1.45,3,2.52,2.52,0,0,0,3.12-1,29.62,29.62,0,0,1,2.71-3.85,2.52,2.52,0,0,0,.2-3.28,2.49,2.49,0,0,0-3.23-.64A49.44,49.44,0,0,0,67.12,41c-1.9,2-3.5,4.25-5.55,6.09a48.69,48.69,0,0,1-6.9,4.73c-1.34.83-2.69,1.65-4.08,2.4-.32.18-.91.67-1.26.63.52.06.09-.06,0-.17a4.83,4.83,0,0,0-1-.77A77.63,77.63,0,0,1,36.84,41.7a33.92,33.92,0,0,1-2.34-3.16c-.58-1-.35-1.33.47-2s2-1.38,2.89-2.21a21.75,21.75,0,0,0,2.83-3.51,27.94,27.94,0,0,1,2.62-3.4,17.54,17.54,0,0,1,3.59-2.63,18.35,18.35,0,0,0,3.83-3.2c.81-.87,1.68-2,3-2v-5a3.46,3.46,0,0,0-3,1.76A2.53,2.53,0,0,0,52.2,20,20.5,20.5,0,0,0,57,21.13a2.51,2.51,0,0,0,2.5-2.5,2.57,2.57,0,0,0-2.5-2.5Z"/><path class="cls-1" d="M61.59,51.63c-1.39.56-2.82,1.08-4.18,1.71a5.76,5.76,0,0,0-1.82,1.35c-.17.18-.32.38-.48.57s-.43.41-.61.63c.1-.12.42-.33.09-.11s.61-.22.1,0c-.24.08-.49.14-.74.2a7.29,7.29,0,0,0-1.87.71A3.84,3.84,0,0,0,50.27,59a3,3,0,0,0,2.16,3.58,2.5,2.5,0,0,0,1.33-4.82l1.35,2.43-.42.73c.26-.34-.32.17-.14.09l.23-.13c.24-.15-.49.16-.22.09s.8-.22,1.19-.33a5.75,5.75,0,0,0,2.9-1.85q.41-.48.84-.93c.19-.19-.38.22-.12.11l.35-.2.29-.14c.32-.16-.09,0-.15.06.13-.15.55-.23.75-.31l.77-.31,1.54-.62a2.73,2.73,0,0,0,1.5-1.15,2.57,2.57,0,0,0,.25-1.92c-.38-1.17-1.78-2.27-3.08-1.75Z"/><circle class="cls-2" cx="53.52" cy="38.59" r="20.7"/><path class="cls-1" d="M53,27.84l1.85,3.74,1.28,2.59a3,3,0,0,0,.63,1.13,3,3,0,0,0,1.26.26l2.74.4,4.25.62-.28-1-3.15,3.08-1.91,1.85c-.26.26-.81.63-.92,1a3.61,3.61,0,0,0,.17,1.3l.46,2.69.75,4.35.92-.71-3.9-2-2.35-1.24a3.58,3.58,0,0,0-1.26-.57,3.09,3.09,0,0,0-1.18.54l-2.42,1.27-3.9,2,.91.71.75-4.35.45-2.61a3.83,3.83,0,0,0,.18-1.38c-.11-.37-.61-.71-.87-1l-1.95-1.91-3.16-3.08-.27,1,4.13-.6L49,35.56a2.86,2.86,0,0,0,1.27-.26c.31-.23.46-.8.63-1.13l1.22-2.48,1.9-3.85c.36-.72-.72-1.35-1.08-.63l-1.75,3.54L50,33.24a7.56,7.56,0,0,0-.45.9s-.12.18-.11.23.09.56.12,0c0-.24.25-.1-.19-.09a9.26,9.26,0,0,0-.92.13l-2.72.4-4,.58a.63.63,0,0,0-.27,1.05l5.81,5.67-.16-.61-1.37,8a.64.64,0,0,0,.92.71l7.19-3.78h-.63l7.18,3.78a.63.63,0,0,0,.92-.71l-1.37-8-.16.61,5.81-5.67a.63.63,0,0,0-.27-1.05l-3.91-.56-2.74-.4a8.62,8.62,0,0,0-1-.15,2.34,2.34,0,0,0-.26,0c-.3.12.18-.33.06.13.11-.42.12.41.13,0,0-.06-.09-.17-.12-.23a8,8,0,0,0-.41-.83l-1.21-2.46-1.8-3.64C53.7,26.49,52.63,27.12,53,27.84Z"/><path class="cls-1" d="M35.31,88.39,32.5,81.25a.64.64,0,0,0-.6-.46l-7.65.56.54,1L38.35,60.72l1.92-3.06-.86.23,10.46,6.57-.23-.85L36.08,85.18l-1.91,3.06c-.43.68.65,1.31,1.07.63L48.81,67.29l1.91-3.05a.63.63,0,0,0-.22-.86L40,56.81a.64.64,0,0,0-.85.22L25.63,78.61l-1.92,3a.63.63,0,0,0,.54.94L31.9,82l-.61-.46,2.81,7.14C34.39,89.46,35.6,89.14,35.31,88.39Z"/><path class="cls-1" d="M82.68,79.74,75,79a.63.63,0,0,0-.6.46l-3,7.08,1.15-.15L59.51,64.55l-1.85-3.09-.22.85L68,56l-.86-.23L80.28,77.59l1.86,3.09a.63.63,0,0,0,1.08-.63L70.11,58.19,68.25,55.1a.63.63,0,0,0-.85-.22L56.8,61.23a.64.64,0,0,0-.22.86L69.69,83.94,71.55,87a.63.63,0,0,0,1.14-.15l3-7.08-.6.46,7.64.73C83.48,81.06,83.47,79.81,82.68,79.74Z"/><path class="cls-1" d="M30.44,41.28c3.22,0,3.23-5,0-5s-3.22,5,0,5Z"/><path class="cls-1" d="M50.11,64.28c3.22,0,3.22-5,0-5s-3.22,5,0,5Z"/><path class="cls-1" d="M55.44,64.61c3.22,0,3.23-5,0-5s-3.22,5,0,5Z"/><path class="cls-1" d="M50.89,64.28c3.22,0,3.22-5,0-5s-3.22,5,0,5Z"/><path class="cls-1" d="M76.56,42.06c3.21,0,3.22-5,0-5s-3.23,5,0,5Z"/><path class="cls-1" d="M76.78,44.72c3.22,0,3.22-5,0-5s-3.22,5,0,5Z"/><path class="cls-1" d="M55.33,17.39c3.22,0,3.23-5,0-5s-3.22,5,0,5Z"/><path class="cls-1" d="M51.33,17.61c3.22,0,3.23-5,0-5s-3.22,5,0,5Z"/></g></svg>