<svg id="Capa_1" data-name="Capa 1" xmlns="http://www.w3.org/2000/svg" viewBox="0 0 100 100"><defs><style>.cls-1{fill:#1d1d1b;}.cls-2{fill:none;stroke:#1d1d1b;stroke-miterlimit:10;stroke-width:4px;}</style></defs><path class="cls-1" d="M17.33,29.69H84.44c5.8,0,5.81-9,0-9H17.33c-5.79,0-5.8,9,0,9Z"/><path class="cls-1" d="M16.74,50.94H83.85c5.79,0,5.8-9,0-9H16.74c-5.79,0-5.8,9,0,9Z"/><path class="cls-1" d="M16.74,50.94H83.85c5.79,0,5.8-9,0-9H16.74c-5.79,0-5.8,9,0,9Z"/><path class="cls-1" d="M16.74,72.2H83.85c5.79,0,5.8-9,0-9H16.74c-5.79,0-5.8,9,0,9Z"/><path class="cls-1" d="M16.74,72.2H83.85c5.79,0,5.8-9,0-9H16.74c-5.79,0-5.8,9,0,9Z"/><line class="cls-2" x1="16.74" y1="46.44" x2="83.85" y2="46.44"/><line class="cls-2" x1="16.74" y1="46.44" x2="83.85" y2="46.44"/></svg>