<svg id="Capa_1" data-name="Capa 1" xmlns="http://www.w3.org/2000/svg" viewBox="0 0 100 100"><defs><style>.cls-1{fill:#1d1d1b;}</style></defs><path class="cls-1" d="M70.58,31.76,70.8,51.5l0,2.81,2.5-2.5H32.47l2.5,2.5-.22-19.74,0-2.81c0-3.22-5-3.23-5,0l.22,19.74,0,2.81a2.53,2.53,0,0,0,2.5,2.5H73.33a2.53,2.53,0,0,0,2.5-2.5l-.22-19.74,0-2.81c0-3.22-5-3.23-5,0Z"/><path class="cls-1" d="M27.4,33.92,51,20.23l3.37-1.95c2.78-1.61.27-5.93-2.53-4.31L28.23,27.65l-3.36,2c-2.78,1.61-.27,5.94,2.53,4.32Z"/><path class="cls-1" d="M51.84,18.28,74.06,31.7l3.12,1.88c2.76,1.67,5.27-2.65,2.52-4.32L57.48,15.85,54.37,14c-2.76-1.67-5.28,2.65-2.53,4.31Z"/><path class="cls-1" d="M63.74,20.22l.09-6-2.5,2.5h4l-2.5-2.5-.07,7.54V22.8a2.5,2.5,0,0,0,5,0l.07-7.54V14.18a2.53,2.53,0,0,0-2.5-2.5h-4a2.53,2.53,0,0,0-2.5,2.5l-.09,6a2.5,2.5,0,1,0,5,0Z"/><path class="cls-1" d="M40.87,71.28l7.33,1.55,4.39.93a5.3,5.3,0,0,0,3.66-.11,5,5,0,0,0,2.12-6.09A4.44,4.44,0,0,0,55,64.77L46.4,63l-4.84-1c-1.54-.33-2.94-.62-4.38.31s-.1,3,1.26,2.16c.83-.53,1.51-.26,2.39-.07l3.71.78,8.6,1.82c.53.11,1.08.2,1.6.33,1.74.47,2,3.45.32,4.19a3.7,3.7,0,0,1-2.1-.17l-4.1-.87-7.33-1.55c-1.57-.33-2.24,2.08-.66,2.41Z"/><path class="cls-1" d="M38.79,64.19l.44-.11h.06a1,1,0,0,0,.42-.23.83.83,0,0,0,.32-.35.87.87,0,0,0,.15-.46.94.94,0,0,0,0-.5l-.13-.3a1.27,1.27,0,0,0-.44-.45l-.3-.12a1.27,1.27,0,0,0-.67,0l-.43.11h-.06a1,1,0,0,0-.43.22,1,1,0,0,0-.32.36.93.93,0,0,0-.15.46,1,1,0,0,0,0,.5l.12.3a1.29,1.29,0,0,0,.45.45l.3.12a1.23,1.23,0,0,0,.66,0Z"/><path class="cls-1" d="M24.84,67.76l12.23-3.13,1.72-.44a1.25,1.25,0,0,0-.66-2.41L25.9,64.91l-1.72.44a1.25,1.25,0,0,0,.66,2.41Z"/><path class="cls-1" d="M27.22,82.62l-1.3-13.86-.19-2a1.28,1.28,0,0,0-1.25-1.25,1.26,1.26,0,0,0-1.25,1.25l1.31,13.86.18,2A1.29,1.29,0,0,0,26,83.87a1.25,1.25,0,0,0,1.25-1.25Z"/><path class="cls-1" d="M58.58,86.11,30.29,82l-4-.58c-1.58-.23-2.26,2.18-.67,2.41l28.3,4.12,4,.58c1.57.23,2.25-2.18.66-2.41Z"/><path class="cls-1" d="M58.09,88.53c1.2,0,2.5-.76,3.58-1.23L68,84.52,80.58,79c1.85-.81,3.31-2,2.94-4.32s-2.47-4.67-5-4c-4.12,1-8.21,2.23-12.31,3.34l-7.8,2.11c-1.38.37-3.25.57-4.29,1.64s.65,2.92,1.77,1.77c.56-.57,1.9-.65,2.62-.85l6-1.62,13-3.51c1-.26,2-.92,2.81-.06s1.26,2.37-.11,3l-.82.36L68.11,81.77l-6.93,3c-.85.38-2.33,1.26-3.09,1.23-1.61-.06-1.61,2.44,0,2.5Z"/><path class="cls-1" d="M41.52,71.36a1.5,1.5,0,0,1,.29-.06l-.33,0a2.25,2.25,0,0,1,.58,0l-.33,0,.09,0a.94.94,0,0,0,.5,0,1,1,0,0,0,.46-.15.9.9,0,0,0,.35-.32.94.94,0,0,0,.23-.43l0-.33a1.29,1.29,0,0,0-.17-.63L43,69.23a1.21,1.21,0,0,0-.56-.32,5.21,5.21,0,0,0-.57-.08,2.09,2.09,0,0,0-.25,0,5,5,0,0,0-.56.07l-.25,0a1,1,0,0,0-.42.22,1,1,0,0,0-.32.35A1,1,0,0,0,40,70a1,1,0,0,0,0,.5l.13.3a1.27,1.27,0,0,0,.45.44l.29.13a1.27,1.27,0,0,0,.67,0Z"/><path class="cls-1" d="M55,77.2c-4.55-.9-9.1-1.78-13.64-2.7a1.56,1.56,0,0,1-.45-3c1.52-.49.87-2.91-.67-2.41a4.16,4.16,0,0,0-1.62,6.77,5.4,5.4,0,0,0,3.13,1.27L51.48,79l2.84.57c1.57.31,2.25-2.1.67-2.41Z"/><path class="cls-1" d="M21,85.17l-2.21.31a12.59,12.59,0,0,1-2.42.34c-1.19-.11-1.11-2-1.21-3L13.8,70.74c-.1-.92-.62-2.84.14-3.58.5-.48,1.64-.45,2.28-.54,1-.13,1.92-.35,2.87-.4.19,0,.37-.08.56.19s-.09.82-.1,1.11.09.81.13,1.2l.61,5.58.78,7c.07.67.14,1.34.22,2s.83,1.58-.32,1.82c-1.57.33-.9,2.74.67,2.41s3.17-2.17,2.32-3.92c-.37-.76-.06.43-.16-.18,0-.25-.06-.52-.08-.77L23,76.25l-.76-6.93a11.17,11.17,0,0,1-.19-1.73c0-.3.14-.65.14-1a2.88,2.88,0,0,0-1-2.14c-1-.84-2.13-.71-3.3-.55l-3.49.49c-2.4.35-3.55,2.38-3.29,4.67l1.43,13.11c.22,2,.14,4.39,2,5.59,1.21.78,2.5.48,3.81.3l3.28-.46C23.22,87.36,22.55,85,21,85.17Z"/></svg>