<svg id="Capa_1" data-name="Capa 1" xmlns="http://www.w3.org/2000/svg" viewBox="0 0 100 100"><defs><style>.cls-1{fill:#1d1d1b;}</style></defs><path class="cls-1" d="M33.65,44.92C38.89,43,44.29,41.41,49.4,39.2l10.18-4.38A36.52,36.52,0,0,0,65.25,32l9.23-6L70.71,23.8l.94,22.82c.25,6.16-.25,12.34-.5,18.51l-.44,10.62,3.77-2.15-7.77-5.44c-1.14-.8-2.26-1.69-3.46-2.42a14.56,14.56,0,0,0-2.31-.95c-5.52-2.11-11-4.39-16.63-6.21l-10.4-3.35c-3.07-1-4.39,3.83-1.33,4.82,4.92,1.59,9.92,3,14.75,4.87l11,4.18a22,22,0,0,0,2.89,1.1c-1-.21-.46-.16,0,.2L63,71.65,72,77.91c1.64,1.15,3.69-.41,3.76-2.16l.94-22.81c.25-6.16-.25-12.34-.5-18.51L75.71,23.8A2.52,2.52,0,0,0,72,21.65l-8,5.26c-.94.61-1.87,1.33-2.85,1.86-.81.44-1.72.74-2.56,1.11L47.75,34.51l-1.24.54c-.29.12,1-.37.1-.07-1.41.48-2.81,1-4.21,1.51L32.32,40.1a2.56,2.56,0,0,0-1.75,3.07,2.53,2.53,0,0,0,3.08,1.75Z"/><path class="cls-1" d="M33,55.14H15.85A3.4,3.4,0,0,1,14.52,55a2.76,2.76,0,0,1-1.69-2.38c0-.69,0-1.38,0-2.07,0-1,0-2,0-3.07a2.37,2.37,0,0,1,.53-1.83,2.09,2.09,0,0,1,1.75-.74H33l-2.5-2.5V57.64c0,3.22,5,3.22,5,0V42.36a2.53,2.53,0,0,0-2.5-2.5H16.46A9.19,9.19,0,0,0,11.1,41,7.17,7.17,0,0,0,8,45.75a17.45,17.45,0,0,0-.13,3c0,2.44-.27,5,.87,7.25a7.92,7.92,0,0,0,7.15,4.16H33C36.2,60.14,36.2,55.14,33,55.14Z"/><path class="cls-1" d="M82,34.92l8.17-3.38,1.17-.48a1.3,1.3,0,0,0,.87-1.54,1.26,1.26,0,0,0-1.54-.87L82.49,32l-1.17.48a1.3,1.3,0,0,0-.87,1.54,1.26,1.26,0,0,0,1.54.87Z"/><path class="cls-1" d="M81.16,67.5l9.2,3.37,1.32.48a1.26,1.26,0,0,0,1.54-.87,1.28,1.28,0,0,0-.87-1.54l-9.2-3.37-1.32-.48a1.26,1.26,0,0,0-1.54.87,1.29,1.29,0,0,0,.87,1.54Z"/><path class="cls-1" d="M82.33,45.6l9-1.16,1.28-.17A1.28,1.28,0,0,0,93.84,43a1.27,1.27,0,0,0-1.25-1.25l-9,1.16-1.28.17a1.28,1.28,0,0,0-1.25,1.25,1.27,1.27,0,0,0,1.25,1.25Z"/><path class="cls-1" d="M82,56.25l9,.51,1.29.08a1.25,1.25,0,0,0,0-2.5l-9-.52L82,53.75A1.26,1.26,0,0,0,80.73,55,1.28,1.28,0,0,0,82,56.25Z"/><path class="cls-1" d="M20.87,61.12l4.51-1.07L22.3,58.3l3.21,16.86.46,2.4,1.74-3.08-4.5,1.07,3.08,1.75L23.08,60.44,22.62,58a2.52,2.52,0,0,0-3.07-1.74,2.55,2.55,0,0,0-1.75,3.07L21,76.23l.46,2.4a2.51,2.51,0,0,0,3.07,1.74L29,79.3a2.56,2.56,0,0,0,1.75-3.07L27.58,59.37,27.12,57a2.53,2.53,0,0,0-3.07-1.74l-4.5,1.07C16.42,57,17.74,61.86,20.87,61.12Z"/><path class="cls-1" d="M77.69,44.78h-1a3.72,3.72,0,0,0-1.92.43,4.5,4.5,0,0,0-2.65,2.64,3.88,3.88,0,0,0-.43,1.93l.18,1.33a5.05,5.05,0,0,0,1.29,2.21l1,.78a5,5,0,0,0,2.52.68h1a5.58,5.58,0,0,0,3.54-1.46,3.75,3.75,0,0,0,1-1.61,3.68,3.68,0,0,0,.43-1.93l-.17-1.33a5.05,5.05,0,0,0-1.29-2.21l-1-.78a5,5,0,0,0-2.53-.68Z"/></svg>