<svg id="Capa_1" data-name="Capa 1" xmlns="http://www.w3.org/2000/svg" viewBox="0 0 100 100"><defs><style>.cls-1{fill:#1d1d1b;}.cls-2{fill:#fff;stroke:#1d1d1b;stroke-miterlimit:10;stroke-width:2px;}</style></defs><path class="cls-1" d="M79.26,84.35H20.74l1.88,1.87V18.07L20.74,20H79.26l-1.88-1.88V86.22a1.88,1.88,0,0,0,3.75,0V18.07a1.89,1.89,0,0,0-1.87-1.87H20.74a1.9,1.9,0,0,0-1.87,1.87V86.22a1.9,1.9,0,0,0,1.87,1.88H79.26A1.88,1.88,0,0,0,79.26,84.35Z"/><rect class="cls-2" x="28.81" y="8.67" width="4.74" height="18.81" rx="2.37"/><rect class="cls-2" x="66.44" y="8.67" width="4.74" height="18.81" rx="2.37"/><rect class="cls-2" x="54.07" y="8.67" width="4.74" height="18.81" rx="2.37"/><rect class="cls-2" x="41.7" y="8.67" width="4.74" height="18.81" rx="2.37"/><path class="cls-1" d="M40.45,43c0,2,.51,5-2.14,5.56a14.54,14.54,0,0,1-2.64,0c-1,0-2,0-2.94,0a2.66,2.66,0,0,1-2.65-2.35,23.17,23.17,0,0,1,0-2.5V40.37a2.8,2.8,0,0,1,1.44-2.69,7,7,0,0,1,3.15-.29h3.16a1.25,1.25,0,0,0,0-2.5H34.72a10.94,10.94,0,0,0-3.7.29A5.22,5.22,0,0,0,27.56,40c0,1,0,2,0,3s0,1.93,0,2.9a5.24,5.24,0,0,0,3.55,4.88,11.48,11.48,0,0,0,3.61.25c1.06,0,2.13,0,3.19,0a5.17,5.17,0,0,0,5-4.41A26.72,26.72,0,0,0,43,43a1.25,1.25,0,0,0-2.5,0Z"/><path class="cls-1" d="M40.45,67.73c0,2,.51,5-2.14,5.56a14.54,14.54,0,0,1-2.64,0H32.73A2.67,2.67,0,0,1,30.08,71a23.17,23.17,0,0,1,0-2.5V65.11a2.8,2.8,0,0,1,1.44-2.69,7.09,7.09,0,0,1,3.15-.29h3.16a1.25,1.25,0,0,0,0-2.5H34.72a10.94,10.94,0,0,0-3.7.29,5.22,5.22,0,0,0-3.46,4.85c0,1,0,2,0,3s0,1.93,0,2.9a5.23,5.23,0,0,0,3.55,4.88,11.48,11.48,0,0,0,3.61.26c1.06,0,2.13,0,3.19,0a5.17,5.17,0,0,0,5-4.41A26.69,26.69,0,0,0,43,67.73a1.25,1.25,0,0,0-2.5,0Z"/><path class="cls-1" d="M31.48,40.94l2.62,3.5.38.5a1.32,1.32,0,0,0,.74.57,1.27,1.27,0,0,0,1-.13,1.25,1.25,0,0,0,.57-.74,1.26,1.26,0,0,0-.12-1L34,40.17l-.37-.5a1.37,1.37,0,0,0-.75-.57,1.24,1.24,0,0,0-1,.13,1.23,1.23,0,0,0-.45,1.71Z"/><path class="cls-1" d="M43.67,34.78,35.8,42.34l-1.13,1.08a1.25,1.25,0,0,0,1.77,1.77l7.87-7.56,1.13-1.08a1.25,1.25,0,0,0-1.77-1.77Z"/><path class="cls-1" d="M31.14,66.15l2.62,3.5.38.5a1.38,1.38,0,0,0,.74.58,1.32,1.32,0,0,0,1-.13,1.27,1.27,0,0,0,.57-.75,1.24,1.24,0,0,0-.12-1l-2.63-3.5-.37-.5a1.44,1.44,0,0,0-.75-.58,1.28,1.28,0,0,0-1,.13,1.25,1.25,0,0,0-.58.75,1.2,1.2,0,0,0,.13,1Z"/><path class="cls-1" d="M43.33,60l-7.87,7.56-1.13,1.08A1.25,1.25,0,1,0,36.1,70.4L44,62.85l1.13-1.08A1.25,1.25,0,0,0,43.33,60Z"/><path class="cls-1" d="M50,40.13,68.07,40h2.6a1.25,1.25,0,0,0,0-2.5l-18.07.1H50a1.25,1.25,0,0,0,0,2.5Z"/><path class="cls-1" d="M50,46.45l18.06-.09,2.6,0a1.25,1.25,0,0,0,0-2.5l-18.06.1H50a1.25,1.25,0,0,0,0,2.5Z"/><path class="cls-1" d="M50.14,65.56l18.07-.1h2.6a1.25,1.25,0,0,0,0-2.5L52.74,63l-2.6,0a1.25,1.25,0,0,0,0,2.5Z"/><path class="cls-1" d="M50.17,71.88l18.07-.1h2.6a1.25,1.25,0,0,0,0-2.5l-18.06.09-2.61,0a1.25,1.25,0,0,0,0,2.5Z"/></svg>