<svg id="Capa_1" data-name="Capa 1" xmlns="http://www.w3.org/2000/svg" viewBox="0 0 100 100"><defs><style>.cls-1{fill:#1d1d1b;}</style></defs><path class="cls-1" d="M60.77,41.5a21.39,21.39,0,1,1-17.24-21,21.58,21.58,0,0,1,17.24,21c0,3.21,5,3.22,5,0A26.74,26.74,0,0,0,48.41,16.7,26.4,26.4,0,0,0,16.7,55,26.7,26.7,0,0,0,44.52,67.38C56.79,65.05,65.68,53.86,65.77,41.5,65.79,38.28,60.79,38.27,60.77,41.5Z"/><path class="cls-1" d="M85.52,76.38l-20-18.32-2.84-2.6c-1.93-1.77-5.19-2.05-7.07,0a5.07,5.07,0,0,0,0,7.07l20,18.31,2.84,2.61c1.93,1.77,5.19,2,7.07,0s2.06-5.18,0-7.07Z"/></svg>