<svg id="Capa_1" data-name="Capa 1" xmlns="http://www.w3.org/2000/svg" viewBox="0 0 100 100"><defs><style>.cls-1{fill:#fff;}</style></defs><path class="cls-1" d="M60.72,40.44a21.38,21.38,0,1,1-17.24-21,21.57,21.57,0,0,1,17.24,21c0,3.22,5,3.23,5,0a26.38,26.38,0,0,0-46.59-17A26.38,26.38,0,0,0,44.48,66.32C56.75,64,65.63,52.81,65.72,40.44,65.75,37.23,60.75,37.22,60.72,40.44Z"/><path class="cls-1" d="M85.48,75.33,65.5,57l-2.84-2.6c-1.93-1.77-5.19-2-7.07,0a5.07,5.07,0,0,0,0,7.07l20,18.31L78.4,82.4c1.93,1.76,5.19,2,7.08,0s2-5.19,0-7.07Z"/></svg>