<svg id="Capa_1" data-name="Capa 1" xmlns="http://www.w3.org/2000/svg" viewBox="0 0 100 100"><defs><style>.cls-1{fill:#1d1d1b;}</style></defs><path class="cls-1" d="M68.11,43.68A26,26,0,0,1,22,60.11,26,26,0,0,1,47.3,18.22,26.25,26.25,0,0,1,68.11,43.68c0,3.21,5,3.22,5,0A31.34,31.34,0,0,0,52.65,14.55a31,31,0,0,0-37,45.13,31,31,0,0,0,57.06-11,34.48,34.48,0,0,0,.42-5C73.13,40.46,68.13,40.45,68.11,43.68Z"/><path class="cls-1" d="M87.69,79.42,71.55,63.28,69.26,61a5,5,0,1,0-7.07,7.07L78.33,84.2l2.29,2.3a5,5,0,1,0,7.07-7.08Z"/><path class="cls-1" d="M22.53,46.18H61.64c3.22,0,3.22-5,0-5H22.53c-3.22,0-3.22,5,0,5Z"/><path class="cls-1" d="M39.58,24.12V63.23c0,3.22,5,3.22,5,0V24.12c0-3.22-5-3.22-5,0Z"/></svg>