<svg id="Capa_1" data-name="Capa 1" xmlns="http://www.w3.org/2000/svg" viewBox="0 0 100 100"><defs><style>.cls-1{fill:#1d1d1b;}</style></defs><path class="cls-1" d="M69.91,46.07A26,26,0,0,1,23.83,62.5,26,26,0,0,1,49.1,20.61,26.24,26.24,0,0,1,69.91,46.07c0,3.21,5,3.22,5,0A31,31,0,0,0,20.19,26.23,31,31,0,0,0,50.1,76.41,31.1,31.1,0,0,0,74.5,51.05a34.72,34.72,0,0,0,.41-5C74.93,42.85,69.93,42.85,69.91,46.07Z"/><path class="cls-1" d="M89.5,81.82,73.36,65.68l-2.3-2.3A5,5,0,0,0,64,70.45L80.13,86.59l2.3,2.3a5,5,0,0,0,7.07-7.07Z"/><path class="cls-1" d="M24.33,48.57H63.44c3.22,0,3.23-5,0-5H24.33c-3.21,0-3.22,5,0,5Z"/></svg>