<?xml version="1.0" ?><svg style="enable-background:new 0 0 64 64;" version="1.1" viewBox="0 0 64 64" xml:space="preserve" xmlns="http://www.w3.org/2000/svg" xmlns:xlink="http://www.w3.org/1999/xlink"><style type="text/css">
	.st0{fill:none;stroke:#000000;stroke-width:2;stroke-linecap:round;stroke-linejoin:round;stroke-miterlimit:10;}
	.st1{fill:none;stroke:#000000;stroke-width:2;stroke-linecap:round;stroke-linejoin:round;}
</style><g id="guides"/><g id="_x32_5._checking"/><g id="_x32_4._faucet"/><g id="_x32_3._drink"/><g id="_x32_2._hotel_key"/><g id="_x32_1._rating"/><g id="_x32_0._map"/><g id="_x31_9._wifi"/><g id="_x31_8._swimming_pool"/><g id="_x31_7._booking"/><g id="_x31_6._pasport"/><g id="_x31_5._coffee_cup"/><g id="_x31_4._bathtub"/><g id="_x31_3._bedroom"/><g id="_x31_2._air_conditioner"/><g id="_x31_1._breakfast"/><g id="_x31_0._parking_lot"/><g id="_x39_._room_service"/><g id="_x38_._elevator"/><g id="_x37_._reception"/><g id="_x36_._relax"/><g id="_x35_._car_rental"><path class="st0" d="M18,14V7h2c1.1045704,0,2,0.8954306,2,2s-0.8954296,2-2,2h-1l3,3"/><line class="st0" x1="26" x2="26" y1="7" y2="14"/><line class="st0" x1="30" x2="26" y1="14" y2="14"/><line class="st0" x1="30" x2="26" y1="10" y2="10"/><line class="st0" x1="30" x2="26" y1="7" y2="7"/><polyline class="st0" points="34,14 34,7 38,14 38,7  "/><line class="st0" x1="42" x2="46" y1="7" y2="7"/><line class="st0" x1="44" x2="44" y1="7" y2="14"/><rect class="st0" height="13" width="36" x="14" y="4"/><rect class="st0" height="4" width="42" x="11" y="50"/><path class="st0" d="M15.5000029,60h-0.0000057C14.1192865,60,13,58.8807144,13,57.5000038V54h5v3.5000038   C18,58.8807144,16.8807125,60,15.5000029,60z"/><path class="st0" d="M48.5000038,60h-0.0000076C47.1192856,60,46,58.8807144,46,57.5000038V54h5v3.5000038   C51,58.8807144,49.8807144,60,48.5000038,60z"/><polygon class="st0" points="49,36 15,36 13,42 13,50 51,50 51,42  "/><path class="st0" d="M47,22H17c-1.1045694,0-2,0.8954296-2,2v12h34V24C49,22.8954296,48.1045685,22,47,22z"/><path class="st0" d="M53.0000038,35H49v-4h4.0000038C54.1045723,31,55,31.8954296,55,32.9999962v0.0000076   C55,34.1045723,54.1045723,35,53.0000038,35z"/><path class="st0" d="M10.9999981,35H15v-4h-4.0000019C9.8954296,31,9,31.8954296,9,32.9999962v0.0000076   C9,34.1045723,9.8954296,35,10.9999981,35z"/><rect class="st0" height="3" width="10" x="27" y="43"/><path class="st0" d="M51,46h-2.5c-0.8284264,0-1.5-0.6715736-1.5-1.5l0,0c0-0.8284264,0.6715736-1.5,1.5-1.5H51V46z"/><path class="st0" d="M13,46h2.5000019C16.3284283,46,17,45.3284264,17,44.5l0,0c0-0.8284264-0.6715717-1.5-1.4999981-1.5H13V46z"/><line class="st0" x1="30" x2="34" y1="25" y2="25"/></g><g id="_x34_._rental"/><g id="_x33_._smoking_area"/><g id="_x32_._exercise"/><g id="_x31_._luggage"/></svg>