<?xml version="1.0" ?><!DOCTYPE svg  PUBLIC '-//W3C//DTD SVG 1.1//EN'  'http://www.w3.org/Graphics/SVG/1.1/DTD/svg11.dtd'><svg enable-background="new 0 0 64 64" height="64px" id="Layer_1" version="1.1" viewBox="0 0 64 64" width="64px" xml:space="preserve" xmlns="http://www.w3.org/2000/svg" xmlns:xlink="http://www.w3.org/1999/xlink"><path d="M60.559,2.542H3.44c-1.883,0-3.409,1.504-3.409,3.359v52.199c0,1.854,1.526,3.357,3.409,3.357h57.119  c1.883,0,3.41-1.504,3.41-3.357V5.901C63.969,4.046,62.441,2.542,60.559,2.542z M35.038,24.695l7.964-7.964l0.002-0.002l0.155-0.155  c0.395-0.372,1.554-1.214,2.923,0.157c0.001,0,0.001,0.001,0.001,0.001l8.388,8.391c0.002,0,0.003,0.003,0.005,0.003  c2.607,2.607,0.005,3.223,0,3.223H34.999C34.64,28.27,32.128,27.605,35.038,24.695z M18.483,9.523c2.821,0,5.108,2.288,5.108,5.109  c0,2.823-2.288,5.109-5.108,5.109c-2.821,0-5.109-2.286-5.109-5.109C13.374,11.812,15.662,9.523,18.483,9.523z M28.016,36.036  c0,1.679-1.32,3.071-3.032,3.321v0.01c0,0-0.839,0.136-0.951,1.034l-1.36,10.938c0,0-0.204,2.527-2.376,2.949  c-2.192,0.421-3.877,0-3.877,0s-1.886-0.066-2.242-3.085c-0.273-2.344-1.086-8.091-1.445-10.592  c-0.181-1.251-1.182-1.261-1.182-1.261l0.003-0.007c-1.659-0.29-2.919-1.666-2.919-3.309V25.505c0-1.87,1.6-3.371,3.571-3.371H24.44  c1.972,0,3.575,1.501,3.575,3.371V36.036z M54.721,38.894l-8.371,8.351c-1.501,1.498-2.825,0.435-3.176,0.1l-8.399-8.424  l-0.365-0.365c-0.793-0.84-2.396-2.838,0.365-2.841c0.002,0,0.002,0,0.002,0l19.942,0.023C54.745,35.74,57.728,35.892,54.721,38.894  z" fill="#241F20"/></svg>