<?xml version="1.0" ?><svg viewBox="0 0 32 32" xmlns="http://www.w3.org/2000/svg"><title/><g data-name="41-Atm" id="_41-Atm"><path d="M29,0H3A3,3,0,0,0,0,3V15a1,1,0,0,0,1,1H6V30a2,2,0,0,0,2,2H24a2,2,0,0,0,2-2V16h5a1,1,0,0,0,1-1V3A3,3,0,0,0,29,0ZM24,30H8V10H24Zm6-16H26V12h1a1,1,0,0,0,1-1V9a1,1,0,0,0-1-1H5A1,1,0,0,0,4,9v2a1,1,0,0,0,1,1H6v2H2V3A1,1,0,0,1,3,2H29a1,1,0,0,1,1,1Z"/><rect height="2" width="12" x="10" y="4"/><path d="M16,24a6,6,0,1,0-6-6A6,6,0,0,0,16,24Zm0-10a4,4,0,1,1-4,4A4,4,0,0,1,16,14Z"/><rect height="2" width="2" x="15" y="26"/></g></svg>