<?xml version="1.0" ?><!DOCTYPE svg  PUBLIC '-//W3C//DTD SVG 1.1//EN'  'http://www.w3.org/Graphics/SVG/1.1/DTD/svg11.dtd'><svg enable-background="new 0 0 56 56" height="56px" id="Layer_1" version="1.1" viewBox="0 0 56 56" width="56px" xml:space="preserve" xmlns="http://www.w3.org/2000/svg" xmlns:xlink="http://www.w3.org/1999/xlink"><path clip-rule="evenodd" d="M46.212,12.053c-0.544-1.76-0.738-4.131-1.976-5.058  c-1.751-1.307-4.276-2.003-6.522-2.14C31.103,4.451,24.463,4.32,17.84,4.356c-2.784,0.016-5.565,0.69-8.337,1.133  C9.25,5.53,9.053,6.047,8.864,6.363c-0.395,0.662-0.848,1.31-1.127,2.024c-0.204,0.52-0.444,1.328-0.198,1.672  c1.407,1.966,2.939,3.848,4.459,5.735c2.475,3.068,5.019,6.083,7.432,9.195c0.727,0.939,1.262,1.021,2.064,0.256  c0.252-0.237,0.547-0.428,1.173-0.912c0.468,1.122,1.049,1.985,1.152,2.903c0.104,0.915-0.222,1.896-0.441,2.83  c-1.188,5.024-2.377,10.046-3.62,15.056c-0.307,1.24-0.219,2.316,0.727,3.207c1.763,1.656,3.544,3.297,5.341,4.918  c1.161,1.049,2.268,0.869,3.32-0.234c1.428-1.498,2.768-3.113,4.361-4.42c1.291-1.063,1.416-2.109,1.008-3.58  c-1.412-5.067-2.564-10.215-4.17-15.217c-0.796-2.48,0.374-3.754,1.809-5.191c1.861,1.428,1.934,1.416,3.299-0.492  c0.383-0.535,0.727-1.11,1.17-1.59c2.921-3.15,5.869-6.277,8.8-9.418C45.729,12.773,46.288,12.299,46.212,12.053z M12.271,6.488  c2.131-0.194,4.262-0.572,6.386-0.553c6.223,0.057,12.441,0.207,18.658,0.468c1.568,0.067,3.115,0.681,4.672,1.043  c0.061,0.191,0.125,0.383,0.186,0.575c-1.727,1.425-3.354,3.012-5.21,4.243c-2.688,1.781-5.526,3.337-8.348,4.912  c-0.407,0.229-1.304,0.246-1.56-0.027c-2.899-3.124-6.708-4.802-10.361-6.763c-1.621-0.87-3.034-2.122-4.542-3.201  C12.192,6.953,12.231,6.722,12.271,6.488z M20.694,23.89c-3.9-4.87-7.672-9.574-11.477-14.323c0.365-0.586,0.681-1.091,1.076-1.723  c0.83,0.592,1.572,1.185,2.371,1.687c2.045,1.282,4.063,2.624,6.186,3.763c2.69,1.443,5.265,2.994,7.523,5.678  C24.509,20.585,22.707,22.146,20.694,23.89z M32.78,44.657c0.426,1.439,0.121,2.318-0.951,3.276  c-1.535,1.368-2.918,2.909-4.643,4.653c-1.881-1.83-3.708-3.538-5.438-5.346c-0.34-0.356-0.501-1.135-0.385-1.633  c1.337-5.803,2.741-11.59,4.134-17.391c3.523-0.115,2.598-0.611,3.48,2.547C30.267,35.39,31.421,40.052,32.78,44.657z M23.892,23.54  c1.121-1.066,2.168-2.061,3.316-3.156c1.143,1.044,2.283,2.083,3.396,3.102C28.251,27.556,26.363,27.546,23.892,23.54z   M43.267,13.077c-3.197,3.411-6.42,6.803-9.715,10.289c-0.517-0.313-1.258-0.656-1.869-1.16c-1.085-0.896-2.088-1.888-3.273-2.973  c5.422-2.833,10.517-5.916,14.861-10.08C44.948,11.245,44.966,11.263,43.267,13.077z" fill-rule="evenodd"/></svg>