<?xml version="1.0" ?><svg viewBox="0 0 32 32" xmlns="http://www.w3.org/2000/svg"><title/><g data-name="backpack, bag, school, travel, rucksack, luggage, schoolbag, baggage, backpacker, traveler" id="backpack_bag_school_travel_rucksack_luggage_schoolbag_baggage_backpacker_traveler"><path d="M27,18H26V16a9.9,9.9,0,0,0-2-6V5a3,3,0,0,0-6,0V6.2a10.1,10.1,0,0,0-4,0V5A3,3,0,0,0,8,5v5a9.9,9.9,0,0,0-2,6v2H5a3,3,0,0,0-3,3v5a1,1,0,0,0,1,1H6a3,3,0,0,0,3,3H23a3,3,0,0,0,3-3h3a1,1,0,0,0,1-1V21A3,3,0,0,0,27,18ZM20,5a1,1,0,0,1,2,0V8a9.57,9.57,0,0,0-2-1.18Zm3.41,8H8.59a8,8,0,0,1,14.82,0ZM11,4a1,1,0,0,1,1,1V6.84A9.57,9.57,0,0,0,10,8V5A1,1,0,0,1,11,4ZM4,25V21a1,1,0,0,1,1-1H6v5Zm20,2a1,1,0,0,1-1,1H9a1,1,0,0,1-1-1s0-11.67.07-12H23.93C24,15.33,24,27,24,27Zm4-2H26V20h1a1,1,0,0,1,1,1Z"/><path d="M19,17H13a3,3,0,0,0-3,3v5a1,1,0,0,0,1,1H21a1,1,0,0,0,1-1V20A3,3,0,0,0,19,17Zm1,7H12V20a1,1,0,0,1,1-1h6a1,1,0,0,1,1,1Z"/></g></svg>