<?xml version="1.0" ?><svg viewBox="0 0 64 64" xmlns="http://www.w3.org/2000/svg"><title/><g id="toaster"><path d="M15,19V15.33A2.11,2.11,0,0,0,14.55,14,6.23,6.23,0,0,1,13,10c0-5,6.72-9,15-9s15,4,15,9a6.23,6.23,0,0,1-1.55,4A2.11,2.11,0,0,0,41,15.33V19" style="fill:none;stroke:#000;stroke-linecap:round;stroke-linejoin:round;stroke-width:2px"/><path d="M46,19V15.33A2.11,2.11,0,0,1,46.45,14,6.23,6.23,0,0,0,48,10c0-5-6.72-9-15-9H28" style="fill:none;stroke:#000;stroke-linecap:round;stroke-linejoin:round;stroke-width:2px"/><line style="fill:none;stroke:#000;stroke-linecap:round;stroke-linejoin:round;stroke-width:2px" x1="29" x2="30" y1="8" y2="7"/><line style="fill:none;stroke:#000;stroke-linecap:round;stroke-linejoin:round;stroke-width:2px" x1="37" x2="37" y1="13" y2="12"/><line style="fill:none;stroke:#000;stroke-linecap:round;stroke-linejoin:round;stroke-width:2px" x1="21" x2="22" y1="14" y2="14"/><path d="M5,54V26a6,6,0,0,1,6-6H51a6,6,0,0,1,6,6V54" style="fill:none;stroke:#000;stroke-linejoin:round;stroke-width:2px"/><path d="M4,54H58a2,2,0,0,1,2,2v3a0,0,0,0,1,0,0H2a0,0,0,0,1,0,0V56A2,2,0,0,1,4,54Z" style="fill:none;stroke:#000;stroke-linecap:round;stroke-linejoin:round;stroke-width:2px"/><path d="M10,59H24a0,0,0,0,1,0,0v2a2,2,0,0,1-2,2H12a2,2,0,0,1-2-2V59A0,0,0,0,1,10,59Z" style="fill:none;stroke:#000;stroke-linecap:round;stroke-linejoin:round;stroke-width:2px"/><path d="M40,59H50a2,2,0,0,1,2,2v2a0,0,0,0,1,0,0H38a0,0,0,0,1,0,0V61A2,2,0,0,1,40,59Z" style="fill:none;stroke:#000;stroke-linecap:round;stroke-linejoin:round;stroke-width:2px" transform="translate(90 122) rotate(-180)"/><circle cx="47" cy="44" r="4" style="fill:none;stroke:#000;stroke-linecap:round;stroke-linejoin:round;stroke-width:2px"/><rect height="3" style="fill:none;stroke:#000;stroke-linecap:round;stroke-linejoin:round;stroke-width:2px" width="5" x="57" y="25"/><line style="fill:none;stroke:#000;stroke-miterlimit:10;stroke-width:2px" x1="47" x2="47" y1="32" y2="37"/></g></svg>