<?xml version="1.0" ?><!DOCTYPE svg  PUBLIC '-//W3C//DTD SVG 1.1//EN'  'http://www.w3.org/Graphics/SVG/1.1/DTD/svg11.dtd'><svg enable-background="new 0 0 64 64" height="64px" id="Layer_1" version="1.1" viewBox="0 0 64 64" width="64px" xml:space="preserve" xmlns="http://www.w3.org/2000/svg" xmlns:xlink="http://www.w3.org/1999/xlink"><g><path d="M57.227,24.99h-7.405v-0.015l-0.376-0.619c-1.187-1.872-3.108-3.238-5.354-3.694l4.103-7.193v-0.032   c0.031-0.049,0.065-0.099,0.081-0.146c0.016-0.05,0.032-0.081,0.032-0.115c0.048-0.146,0.032-0.259,0.018-0.342   c-0.018-0.031-0.034-0.064-0.05-0.082c-0.032-0.063-0.081-0.097-0.081-0.097l-6.119-7.129c0.927-1.546,0.795-3.434-0.391-4.572   c-1.416-1.352-3.826-1.107-5.37,0.52C36.1,1.7,35.921,1.928,35.776,2.174h-0.018l-6.07,2.31l2.815,2.816l0.229,0.244l5.223,5.388   l2.116-5.583l4.426,5.144c0,0,0.065,0.064,0.146,0.178c0.18,0.261,0.455,0.782,0.163,1.27c0,0.015-0.015,0.015-0.015,0.032   l-3.777,6.641c-2.475,0.407-4.573,1.904-5.778,3.971c-0.015,0.015-0.032,0.032-0.032,0.032c-0.064,0.081-0.113,0.164-0.162,0.26   c-0.016,0-0.016,0.016-0.016,0.032c-0.018,0.034-0.034,0.051-0.05,0.081H6.772c-1.79,0-3.253,1.466-3.253,3.256v34.406   c0,1.317,1.35,1.271,1.35,1.271h0.895c0.961,0,1.14-0.798,1.157-1.205V31.159c0-1.611,1.285-2.913,2.88-2.913h44.463   c1.581,0,2.865,1.302,2.865,2.913v31.542c0,1.173,1.139,1.222,1.139,1.222h1.221c1.025,0,0.994-1.141,0.994-1.141V28.246   C60.481,26.456,59.016,24.99,57.227,24.99z" fill="#241F20"/><path d="M50.66,31.171H34.124c-0.131,0-0.275,0.016-0.407,0.047v-0.047h-2.782v11.521h2.782v-0.047   c0.132,0.031,0.276,0.047,0.407,0.047H50.66c1.774,0,3.189-1.348,3.189-3.026v-5.467C53.85,32.52,52.435,31.171,50.66,31.171z    M46.226,37.699H38.81c-0.933,0-1.69-0.719-1.69-1.605c0-0.886,0.758-1.605,1.69-1.605h7.416c0.933,0,1.688,0.72,1.688,1.605   C47.914,36.98,47.158,37.699,46.226,37.699z" fill="#241F20"/><path d="M50.66,46.014H34.124c-0.131,0-0.275,0.017-0.407,0.047v-0.047h-2.782v11.538h2.782v-0.047   c0.132,0.031,0.276,0.047,0.407,0.047H50.66c1.774,0,3.189-1.366,3.189-3.025V49.04C53.85,47.364,52.435,46.014,50.66,46.014z    M46.099,52.14h-7.415c-0.933,0-1.689-0.719-1.689-1.606c0-0.886,0.757-1.604,1.689-1.604h7.415c0.934,0,1.69,0.719,1.69,1.604   C47.789,51.421,47.032,52.14,46.099,52.14z" fill="#241F20"/></g></svg>