<?xml version="1.0" ?><svg data-name="027_APPLIANCES" id="_027_APPLIANCES" viewBox="0 0 24 24" xmlns="http://www.w3.org/2000/svg"><defs><style>.cls-1{fill:#333;}</style></defs><path class="cls-1" d="M18,22H6a3,3,0,0,1-3-3V12.14a1,1,0,0,1,2,0V19a1,1,0,0,0,1,1H18a1,1,0,0,0,1-1V5a1,1,0,0,0-1-1H6A1,1,0,0,0,5,5V8.64a1,1,0,0,1-2,0V5A3,3,0,0,1,6,2H18a3,3,0,0,1,3,3V19A3,3,0,0,1,18,22Z"/><path class="cls-1" d="M12,22a1,1,0,0,1-1-1V3a1,1,0,0,1,2,0V21A1,1,0,0,1,12,22Z"/><path class="cls-1" d="M12,10H4A1,1,0,0,1,4,8h8a1,1,0,0,1,0,2Z"/><path class="cls-1" d="M12,16H4a1,1,0,0,1,0-2h8a1,1,0,0,1,0,2Z"/><path class="cls-1" d="M8,10A1,1,0,0,1,7,9V6A1,1,0,0,1,9,6V9A1,1,0,0,1,8,10Z"/><path class="cls-1" d="M8,16a1,1,0,0,1-1-1V12a1,1,0,0,1,2,0v3A1,1,0,0,1,8,16Z"/><path class="cls-1" d="M15,16a1,1,0,0,1,1-1h0a1,1,0,0,1,1,1h0a1,1,0,0,1-1,1h0A1,1,0,0,1,15,16Zm0-4a1,1,0,0,1,1-1h0a1,1,0,0,1,1,1h0a1,1,0,0,1-1,1h0A1,1,0,0,1,15,12Zm0-4a1,1,0,0,1,1-1h0a1,1,0,0,1,1,1h0a1,1,0,0,1-1,1h0A1,1,0,0,1,15,8Z"/></svg>