<?xml version="1.0" ?><svg xmlns="http://www.w3.org/2000/svg" xmlns:xlink="http://www.w3.org/1999/xlink" version="1.1" viewBox="0 0 512 512" style="enable-background:new 0 0 512 512;" xml:space="preserve"><g id="_x33_9_x2C__ironing_x2C__ironing_board_x2C__iron_board_x2C__laundry_x2C__clothes"><g><path style="fill:#283954;" d="M401,421h-47.723l-60.575-75.495l66.072-81.676c3.608-4.46,2.787-11.182-2.159-14.555    c2.646-1.799,4.385-4.833,4.385-8.274c0-5.523-4.478-10-10-10H61c-18.604,0-34.283-12.767-38.734-30    c115.741,0,226.929,0,328.734,0c5.522,0,10-4.477,10-10s-4.478-10-10-10H218.808l-7.842-31.369C210.23,111.665,179.138,81,141,81    H51V71c0-11.028,8.972-20,20-20h50c5.522,0,10-4.478,10-10s-4.478-10-10-10H71c-22.056,0-40,17.944-40,40    c0,23.783,0,54.978,0,78.77L23.192,181H11c-5.523,0-10,4.477-10,10c0,33.084,26.916,60,60,60h86.676l66.938,92.401L145.189,421    H101c-5.522,0-10,4.478-10,10v40c0,5.522,4.478,10,10,10h66.56c2.846,0,5.556-1.212,7.453-3.333l77.393-86.515l69.085,86.105    c1.898,2.366,4.767,3.742,7.8,3.742H401c5.522,0,10-4.478,10-10v-40C411,425.478,406.522,421,401,421z M189.995,141H91v-40h50    C165.145,101,185.35,118.206,189.995,141z M51,141v-40h20v40H51z M48.808,161h144.385l5,20c-17.202,0-137.457,0-154.385,0    L48.808,161z M254.92,296.904L223.144,251h67.206L254.92,296.904z M172.374,251h26.446l42.951,62.049l-13.509,15.099L172.374,251z     M163.088,461H111v-20h38.66c2.846,0,5.556-1.212,7.453-3.332C283.376,296.505,248.251,338.278,315.614,251h27.836    C342.927,251.605,163.889,460.104,163.088,461z M391,461h-56.912l-68.164-84.956l13.519-15.104l61.237,76.319    c1.898,2.365,4.767,3.741,7.8,3.741H391V461z"/><path style="fill:#283954;" d="M501,181h-50c-5.522,0-10,4.477-10,10s4.478,10,10,10h38.734c-4.451,17.233-20.13,30-38.734,30    c-5.522,0-10,4.477-10,10s4.478,10,10,10c33.084,0,60-26.916,60-60C511,185.477,506.522,181,501,181z"/><path style="fill:#3A98FF;" d="M422.333,151h-42.666C358.346,151,341,168.346,341,189.667c0,13.666,0,117.838,0,131.333    c0,5.522,4.478,10,10,10h100c5.522,0,10-4.478,10-10c0-13.494,0-117.628,0-131.333C461,168.346,443.654,151,422.333,151z     M379.667,171h42.666c10.293,0,18.667,8.374,18.667,18.667V231h-80v-41.333C361,179.374,369.374,171,379.667,171z M441,271h-80    v-20h80V271z M361,311v-20h80v20H361z"/></g></g><g id="Layer_1"/></svg>