<?xml version="1.0" ?><!DOCTYPE svg  PUBLIC '-//W3C//DTD SVG 1.1//EN'  'http://www.w3.org/Graphics/SVG/1.1/DTD/svg11.dtd'><svg enable-background="new 0 0 64 64" height="64px" id="Layer_1" version="1.1" viewBox="0 0 64 64" width="64px" xml:space="preserve" xmlns="http://www.w3.org/2000/svg" xmlns:xlink="http://www.w3.org/1999/xlink"><g><path d="M33.297,19.037c1.623-0.117,3.042-0.91,3.973-2.1c0,0,0.026-0.013,0.062-0.055   c0.383-0.485,0.683-1.042,0.873-1.63c0.247-0.943,0.316-2.317-0.248-4.208c-0.758-2.594-2.701-6.187-7-10.993   c1.524,4.472-0.729,7.828-2.168,9.588c-0.119,0.153-0.239,0.292-0.349,0.417c-0.811,1.05-1.239,2.372-1.135,3.785   C27.524,16.932,30.208,19.257,33.297,19.037z" fill="#241F20"/><path d="M52.369,48.177c-0.194,0.041-0.403,0.083-0.609,0.127c-0.008,0.001-0.024,0.006-0.024,0.006v-0.002   c-2.092,0.428-4.804,0.89-8.068,1.238c-2.308,0.263-2.587-1.531-2.609-2.25V26.494c0-1.703-1.38-3.08-3.081-3.08H26.023   c-1.701,0-3.08,1.377-3.08,3.08v20.69c0,2.006-1.601,2.222-2.464,2.194c-2.773-0.317-5.664-0.761-8.652-1.339   c-0.059-0.009-0.095-0.009-0.16-0.02c-3.727-0.646-4.209,2.328-4.261,3.472v10.609c0,1.022,0.827,1.847,1.849,1.847h45.492   c1.021,0,1.847-0.824,1.847-1.847V51.443C56.594,47.898,53.681,47.967,52.369,48.177z M25.878,45.193V32.126v-3.657   c0-1.149,0.933-2.082,2.082-2.082h8.08c1.147,0,2.081,0.933,2.081,2.082v3.657v13.067v1.822c0,0,0.129,3.023-2.98,3.064   c-2.107,0.04-4.338,0.022-6.683-0.074c-2.134-0.101-2.525-1.728-2.58-2.56V45.193z" fill="#241F20"/></g></svg>