<?xml version="1.0" ?><svg style="enable-background:new 0 0 64 64;" version="1.1" viewBox="0 0 64 64" xml:space="preserve" xmlns="http://www.w3.org/2000/svg" xmlns:xlink="http://www.w3.org/1999/xlink"><style type="text/css">
	.st0{fill:none;stroke:#000000;stroke-width:2;stroke-linecap:round;stroke-linejoin:round;stroke-miterlimit:10;}
	.st1{fill:none;stroke:#000000;stroke-width:2;stroke-linecap:round;stroke-linejoin:round;}
</style><g id="guides"/><g id="_x32_5._checking"/><g id="_x32_4._faucet"/><g id="_x32_3._drink"/><g id="_x32_2._hotel_key"/><g id="_x32_1._rating"/><g id="_x32_0._map"/><g id="_x31_9._wifi"/><g id="_x31_8._swimming_pool"/><g id="_x31_7._booking"/><g id="_x31_6._pasport"/><g id="_x31_5._coffee_cup"/><g id="_x31_4._bathtub"/><g id="_x31_3._bedroom"/><g id="_x31_2._air_conditioner"/><g id="_x31_1._breakfast"/><g id="_x31_0._parking_lot"/><g id="_x39_._room_service"><path class="st0" d="M50,38h3c1.1045685,0,2-0.8954315,2-2V23c0-1.1045704-0.8954315-2-2-2h-3c-1.1045685,0-2,0.8954296-2,2v13   C48,37.1045685,48.8954315,38,50,38z"/><path class="st0" d="M49,38v12.5c0,1.3800049,1.1199951,2.5,2.5,2.5s2.5-1.1199951,2.5-2.5V38H49z"/><path class="st0" d="M38,28.4999981v0.0000038C38,29.8807125,39.1192856,31,40.4999962,31H48v-5h-7.5000038   C39.1192856,26,38,27.1192875,38,28.4999981z"/><circle class="st0" cx="51.5" cy="14.5" r="3.5"/><rect class="st0" height="4" width="29" x="9" y="29"/><circle class="st0" cx="14" cy="51" r="2"/><circle class="st0" cx="33" cy="51" r="2"/><path class="st0" d="M16,29c0-4.4182777,3.5817223-8,8-8s8,3.5817223,8,8H16z"/><line class="st0" x1="9" x2="38" y1="49" y2="49"/><rect class="st0" height="16" width="4" x="12" y="33"/><rect class="st0" height="16" width="4" x="31" y="33"/><path class="st0" d="M23.5200005,17c0-0.9989262,0.9599991-0.9989262,0.9599991-1.9978533   c0-1.0005369-0.9599991-1.0005369-0.9599991-2.0010729S24.4799995,12.0005369,24.4799995,11"/><path class="st0" d="M19.5200005,17c0-0.9989262,0.9599991-0.9989262,0.9599991-1.9978533   c0-1.0005369-0.9599991-1.0005369-0.9599991-2.0010729S20.4799995,12.0005369,20.4799995,11"/><path class="st0" d="M27.5200005,17c0-0.9989262,0.9599991-0.9989262,0.9599991-1.9978533   c0-1.0005369-0.9599991-1.0005369-0.9599991-2.0010729S28.4799995,12.0005369,28.4799995,11"/></g><g id="_x38_._elevator"/><g id="_x37_._reception"/><g id="_x36_._relax"/><g id="_x35_._car_rental"/><g id="_x34_._rental"/><g id="_x33_._smoking_area"/><g id="_x32_._exercise"/><g id="_x31_._luggage"/></svg>