<?xml version="1.0" ?><!DOCTYPE svg  PUBLIC '-//W3C//DTD SVG 1.1//EN'  'http://www.w3.org/Graphics/SVG/1.1/DTD/svg11.dtd'><svg enable-background="new 0 0 64 64" height="64px" id="Layer_1" version="1.1" viewBox="0 0 64 64" width="64px" xml:space="preserve" xmlns="http://www.w3.org/2000/svg" xmlns:xlink="http://www.w3.org/1999/xlink"><g><path d="M39.788,49.758c0.014,0,0.014,0,0.027,0c0.027-0.043,0.069-0.07,0.1-0.113   C39.87,49.688,39.829,49.729,39.788,49.758z" fill="#241F20"/><path d="M39.592,59.675c-1.061-3.756-5.611-6.318-8.263-6.318c-6.802-0.126-7.18-4.564-7.202-5.057h1.839   c0,0,1.79-0.028,1.07-1.601c-0.001-0.003-0.001-0.003-0.001-0.006l-2.32-5.061c2.356-0.417,4.496-1.488,6.217-3.024   c0.047-0.03,0.077-0.063,0.124-0.107c0.961-1.085,1.845-2.201,2.621-3.303c0.014-0.017,0.014-0.03,0.014-0.047   c4.033-5.797,5.396-11.626,5.877-14.758v-0.079c0.062-0.31,0.077-0.573,0.125-0.807c0.017-0.277,0.047-0.496,0.061-0.697   c0.047-0.496,0.047-0.759,0.047-0.759c0.017-0.202,0.017-0.403,0.017-0.605c0-9.582-7.769-17.349-17.365-17.349   c-9.581,0-17.349,7.767-17.349,17.349c0,0.202,0,0.403,0.017,0.605c0,0.092,0,0.202,0.014,0.279   c0.033,0.605,0.094,1.178,0.171,1.752c0,0.045,0.017,0.077,0.017,0.107c0.992,7.567,4.355,13.086,6.465,15.906   c0.107,0.141,0.218,0.281,0.309,0.406c0.295,0.387,0.558,0.695,0.776,0.961c0.216,0.262,0.387,0.447,0.511,0.571   c0.141,0.141,0.202,0.204,0.202,0.204s0,0,0.017,0c1.767,1.734,4.062,2.944,6.603,3.395l-1.978,4.55   c-0.863,1.984,1.033,2.117,1.033,2.117h2.051c1.211,7.61,6.756,7.707,9.27,7.776c6.363,0.731,6.848,5.984,6.848,6.78   c0.178,0.574,0.486,1.192,1.724,1.016s1.014-1.635,1.014-1.635S40.254,61.707,39.592,59.675z" fill="#241F20"/><path d="M45.604,7.319c-1.754,0-3.413,0.365-4.943,0.984c-0.715,0.385-0.48,1.302-0.48,1.302l0.122,0.28V9.885   c0,0,0.005,0.01,0.005,0.013l0.014,0.03c0.006,0.011,0.03,0.035,0.039,0.05c0.263,0.548,0.743,1.577,0.967,2.237   c1.094,3.55,1.822,10.7-4.019,21.283l-0.124,0.22c-0.003,0.004-0.248,0.475,0.107,0.962c0.047,0.066,0.1,0.144,0.144,0.205   c0.086,0.107,0.169,0.215,0.24,0.309c0.224,0.299,0.425,0.533,0.591,0.737c0.169,0.202,0.299,0.343,0.393,0.437   c0.107,0.107,0.154,0.157,0.154,0.157s0,0,0.012,0c1.353,1.329,3.112,2.254,5.059,2.599l-1.516,3.482   c-0.53,1.221,0.29,1.522,0.641,1.597h5.51c0.361-0.066,1.005-0.31,0.596-1.198c0-0.003,0-0.003,0-0.006l-1.778-3.875   c1.807-0.32,3.444-1.141,4.762-2.313c0.035-0.025,0.061-0.05,0.094-0.083c0.737-0.831,1.414-1.688,2.008-2.53   c0.011-0.014,0.011-0.024,0.011-0.035c3.088-4.439,4.132-8.904,4.499-11.301v-0.061c0.05-0.237,0.061-0.439,0.097-0.617   c0.011-0.212,0.035-0.38,0.047-0.534c0.035-0.378,0.035-0.582,0.035-0.582c0.012-0.153,0.012-0.308,0.012-0.462   C58.898,13.265,52.952,7.319,45.604,7.319z" fill="#241F20"/></g></svg>